{
	"asset":{
		"generator":"Khronos glTF Blender I/O v3.5.30",
		"version":"2.0"
	},
	"scene":0,
	"scenes":[
		{
			"name":"Scene",
			"nodes":[
				0
			]
		}
	],
	"nodes":[
		{
			"mesh":0,
			"name":"Cube"
		}
	],
	"materials":[
		{
			"doubleSided":true,
			"name":"Material",
			"pbrMetallicRoughness":{
				"baseColorFactor":[
					0.800000011920929,
					0.800000011920929,
					0.800000011920929,
					1
				],
				"metallicFactor":0,
				"roughnessFactor":0.5
			}
		}
	],
	"meshes":[
		{
			"name":"Cube",
			"primitives":[
				{
					"attributes":{
						"POSITION":0,
						"TEXCOORD_0":1,
						"NORMAL":2
					},
					"indices":3,
					"material":0
				}
			]
		}
	],
	"accessors":[
		{
			"bufferView":0,
			"componentType":5126,
			"count":4758,
			"max":[
				1.0007023811340332,
				1.0007023811340332,
				1.0007022619247437
			],
			"min":[
				-1.0007023811340332,
				-1.000702142715454,
				-1.0007022619247437
			],
			"type":"VEC3"
		},
		{
			"bufferView":1,
			"componentType":5126,
			"count":4758,
			"type":"VEC2"
		},
		{
			"bufferView":2,
			"componentType":5126,
			"count":4758,
			"type":"VEC3"
		},
		{
			"bufferView":3,
			"componentType":5123,
			"count":9216,
			"type":"SCALAR"
		}
	],
	"bufferViews":[
		{
			"buffer":0,
			"byteLength":57096,
			"byteOffset":0,
			"target":34962
		},
		{
			"buffer":0,
			"byteLength":38064,
			"byteOffset":57096,
			"target":34962
		},
		{
			"buffer":0,
			"byteLength":57096,
			"byteOffset":95160,
			"target":34962
		},
		{
			"buffer":0,
			"byteLength":18432,
			"byteOffset":152256,
			"target":34963
		}
	],
	"buffers":[
		{
			"byteLength":170688,
			"uri":"data:application/octet-stream;base64,"
		}
	]
}
